<?xml version="1.0" encoding="UTF-8"?>
<svg version="1.1" xmlns="http://www.w3.org/2000/svg" width="219" height="218">
<path d="M0 0 C72.27 0 144.54 0 219 0 C219 71.94 219 143.88 219 218 C146.73 218 74.46 218 0 218 C0 146.06 0 74.12 0 0 Z " fill="#FDFEFE" transform="translate(0,0)"/>
<path d="M0 0 C8.26760858 -0.11653973 16.53486634 -0.20503835 24.80309677 -0.25906086 C28.64360596 -0.28500673 32.48354773 -0.32012361 36.32373047 -0.37719727 C40.03909013 -0.43206174 43.75390873 -0.46153297 47.46964264 -0.47438622 C48.87768303 -0.48352977 50.28569832 -0.50138145 51.69350433 -0.52865028 C63.07022905 -0.73998029 72.75877316 0.8616415 81.4375 8.6875 C88.53718252 16.67649557 91.14704239 24.37160571 90.54296875 35.0234375 C89.58899738 44.11781905 84.55656713 51.4021561 77.93359375 57.44921875 C66.23622699 66.8307432 45.43834971 66.50837036 31.04789734 65.30072021 C20.13705307 63.91684218 12.2413196 58.07818998 5.33241272 49.74221802 C-4.96975455 35.82255818 -1.87469914 16.19932337 0 0 Z " fill="#343434" transform="translate(121,54)"/>
<path d="M0 0 C0.70108887 0.35642578 1.40217773 0.71285156 2.12451172 1.08007812 C14.38137457 7.53613456 22.97389989 17.59707654 28.125 30.4375 C29.99183826 36.5797895 30.51168478 42.21998911 30.5 48.625 C30.49838867 49.54756592 30.49677734 50.47013184 30.49511719 51.4206543 C30.28332421 63.28625199 26.85334889 75.16348133 19.125 84.4375 C15.8663364 83.0110422 13.7225146 81.27045838 11.234375 78.7421875 C10.52539062 78.02675781 9.81640625 77.31132812 9.0859375 76.57421875 C8.35632813 75.82785156 7.62671875 75.08148438 6.875 74.3125 C6.12992187 73.55839844 5.38484375 72.80429688 4.6171875 72.02734375 C2.7818658 70.16849228 0.9513809 68.30512995 -0.875 66.4375 C-0.39809796 64.81183394 0.08159666 63.18698689 0.5625 61.5625 C0.82933594 60.65757813 1.09617188 59.75265625 1.37109375 58.8203125 C2.125 56.4375 2.125 56.4375 3.125 54.4375 C4.01330947 45.2469136 2.34208278 38.82135805 -3.5 31.6875 C-9.69166237 25.19298458 -15.05948449 23.24624301 -24 23 C-29.46300551 23.14128463 -33.05071128 24.02535564 -37.875 26.4375 C-41.63981033 26.10145865 -43.40816839 24.25585051 -45.984375 21.62109375 C-46.73847656 20.85732422 -47.49257813 20.09355469 -48.26953125 19.30664062 C-49.04683594 18.50419922 -49.82414062 17.70175781 -50.625 16.875 C-51.41777344 16.06869141 -52.21054687 15.26238281 -53.02734375 14.43164062 C-54.98347046 12.44016222 -56.93225719 10.44202279 -58.875 8.4375 C-44.13537383 -6.61347224 -18.61836777 -9.52671962 0 0 Z " fill="#248BE8" transform="translate(89.875,58.5625)"/>
<path d="M0 0 C6.78376359 5.55035203 12.85522968 11.76442027 19 18 C18.505 19.175625 18.01 20.35125 17.5 21.5625 C14.76488102 29.89935305 14.36695029 39.4883947 18.0625 47.5625 C21.73448117 53.77186142 26.71685194 58.26765327 33.62890625 60.53125 C41.69498472 62.12586189 48.68527088 61.5795483 56 58 C59.7354779 58.34126705 61.52591481 60.15149276 64.109375 62.74609375 C65.24052734 63.87821289 65.24052734 63.87821289 66.39453125 65.03320312 C67.17183594 65.82662109 67.94914062 66.62003906 68.75 67.4375 C69.54277344 68.22705078 70.33554688 69.01660156 71.15234375 69.83007812 C77 75.73309085 77 75.73309085 77 78 C62.20917455 88.23032094 45.89114879 91.51131306 28.21875 88.31640625 C13.53384686 84.10323761 2.08671015 75.0523102 -6 62.0625 C-12.83626422 49.27524318 -14.21609263 33.53891496 -10.828125 19.40625 C-8.3590451 12.23194236 -4.88053048 5.79959141 0 0 Z " fill="#343434" transform="translate(24,73)"/>
<path d="M0 0 C10.01102697 5.00551348 21.65489018 14.9373946 27 25 C30.09080053 34.47874722 28.35274566 45.37394028 27 55 C18.09 55 9.18 55 0 55 C0 36.85 0 18.7 0 0 Z " fill="#258CE8" transform="translate(121,107)"/>
<path d="M0 0 C9.9 0 19.8 0 30 0 C30 0.66 30 1.32 30 2 C30.639375 2.28875 31.27875 2.5775 31.9375 2.875 C34 4 34 4 35 6 C35.375 9.3125 35.375 9.3125 35 13 C31.18655139 17.74104422 27.66958829 19.22366055 21.75 20 C15.79684902 20.02918211 12.9361657 17.75047634 8.79785156 13.828125 C0 4.90021459 0 4.90021459 0 0 Z " fill="#F8F8F8" transform="translate(148,76)"/>
</svg>
